<svg width="115" height="48" viewBox="0 0 115 48" fill="none" xmlns="http://www.w3.org/2000/svg">
    <g id="adeslas" clip-path="url(#clip0_6765_16105)">
        <path id="blue" d="M110.666 0H3.78587C1.40689 6.70608 0 15.0095 0 24C0 32.9905 1.40689 41.2939 3.78587 48H110.665C113.044 41.2939 114.451 32.9905 114.451 24C114.451 15.0095 113.044 6.70608 110.665 0H110.666Z" fill="#009DDD"/>
        <path id="text" d="M21.8129 33.1972V32.5561C21.1127 32.5561 20.7659 32.0031 20.7659 31.3042C20.7659 30.9837 20.8211 30.3413 20.9669 29.8461L21.7564 27.2819H28.603L29.625 29.9919C29.8273 30.5765 29.9718 31.0717 29.9718 31.4763C29.9718 32.1476 29.625 32.5561 29.0129 32.5561V33.1972C30.006 33.1972 30.9663 33.0829 31.958 33.0829C32.9498 33.0829 33.9114 33.1972 34.8979 33.1972V32.5561C33.8523 32.4418 33.5896 31.4763 32.5689 28.8845L26.186 12.5049H25.8352L19.627 28.1857C19.074 29.586 17.9666 32.3236 16.8027 32.5561V33.1972C17.6435 33.1972 18.4618 33.0829 19.3052 33.0829C20.1485 33.0829 20.9656 33.1972 21.8129 33.1972ZM25.1351 18.2165L28.0802 25.8842H22.3081L25.1351 18.2165ZM40.4336 33.4901C41.4267 33.4901 41.9823 33.3443 42.4749 33.0514L44.1656 31.5683C44.6319 32.4418 45.449 33.1696 46.3817 33.4901C46.9347 32.7899 48.0145 32.0031 49.0339 31.3344L48.5978 30.897C48.3928 31.0139 48.1892 31.1308 47.7794 31.1308C47.1094 31.1308 46.8769 30.5449 46.8769 29.4967V22.2428C46.8769 18.0431 46.9951 14.7788 46.9951 12.5062H46.4119C45.6815 13.322 43.9331 14.139 42.5052 14.516V15.0993C43.2618 15.2175 43.9922 15.6248 43.9922 17.2563V21.5689C42.9978 21.1039 42.0086 20.8412 41.0194 20.8412C37.2861 20.8412 34.5459 23.1715 34.5459 27.2241C34.5459 30.7512 36.8815 33.4914 40.4336 33.4914V33.4901ZM40.9301 22.005C43.2316 22.005 44.05 23.1702 44.05 25.9394V30.7197C43.2907 31.4487 42.5341 31.7417 41.6881 31.7417C39.1541 31.7417 37.696 28.8845 37.696 26.4648C37.696 24.4826 38.63 22.005 40.9301 22.005ZM55.7386 33.4901C56.9616 33.4901 57.9219 33.2576 58.5064 33.0514L60.0802 30.7512L59.7872 30.4004C58.9137 31.0402 57.8063 31.3344 56.7291 31.3344C53.7275 31.3344 51.6559 28.7111 51.8595 25.8251H60.3416C60.3114 22.7354 57.9784 20.8385 54.9767 20.8385C51.0122 20.8385 49.0313 24.4234 49.0313 27.1637C49.0313 29.9039 51.0109 33.4901 55.736 33.4901H55.7386ZM54.4841 21.8316C56.3784 21.8316 57.1954 22.9377 57.1954 24.6573H51.9475C51.891 23.1702 52.9104 21.8316 54.4854 21.8316H54.4841ZM61.5672 24.6888C61.5672 22.005 63.7833 20.8399 66.1701 20.8399C67.4247 20.8399 68.649 21.2208 69.8746 21.5978L69.755 24.2211H68.8237C68.5031 22.7367 67.6861 22.005 66.1123 22.005C64.9472 22.005 64.1012 22.6461 64.1012 23.8441C64.1012 26.6408 69.8982 25.5913 69.8982 29.586C69.8982 32.3538 67.7728 33.4901 65.265 33.4901C64.2457 33.4901 62.76 33.1972 61.8877 32.6454L61.713 29.9354H62.7902C63.0818 31.3358 64.2194 32.3262 65.5304 32.3262C66.6076 32.3262 67.5705 31.655 67.5705 30.52C67.5705 28.3919 61.5659 28.8293 61.5659 24.6901L61.5672 24.6888ZM70.8046 14.9535V14.2835C71.8279 14.139 74.1268 13.322 74.8847 12.5049H75.4693C75.4391 14.0773 75.3537 16.9358 75.3537 19.6169V30.9259C75.3537 31.9151 75.5849 32.4405 76.4913 32.585V33.1696C75.6164 33.1696 74.7442 33.0816 73.868 33.0816C72.9918 33.0816 72.2076 33.1696 71.3642 33.1696V32.585C72.2969 32.4405 72.5281 31.9151 72.5281 31.274V21.8303C72.5281 20.1397 72.3836 17.9538 72.2969 16.8451C72.2378 15.651 71.7412 14.9522 70.8072 14.9522L70.8046 14.9535ZM81.0076 33.4901C82.2883 33.4901 83.221 32.7899 84.2128 32.0622C84.5609 32.7899 85.4371 33.3443 86.5458 33.4901L88.7277 31.7417L88.2916 31.3042C88.0893 31.3633 87.8292 31.4185 87.6821 31.4185C87.0384 31.4185 86.8059 31.0389 86.8059 29.699V28.6809C86.8361 27.0192 86.9215 25.5046 86.9215 24.4563C86.9215 21.5387 84.7067 20.8399 82.1123 20.8399C80.7435 20.8399 79.577 21.0159 78.3527 21.3653V24.1344H79.0555C79.7846 23.0533 80.5136 22.587 81.9416 22.587C83.9225 22.587 84.0368 24.3381 84.0368 25.9105C83.6322 25.9105 83.1343 25.8251 82.668 25.8251C80.0171 25.8251 77.0719 27.0192 77.0719 30.1088C77.0719 32.2658 79.0253 33.4901 81.0089 33.4901H81.0076ZM82.6378 26.8156C83.1645 26.8156 83.7162 26.9036 84.0355 26.9601L84.1248 31.2438C83.6585 31.538 83.0752 31.7417 82.1714 31.7417C80.9471 31.7417 79.8989 30.7197 79.8989 29.3824C79.8989 27.5144 81.2979 26.8142 82.6391 26.8142L82.6378 26.8156ZM89.3438 24.6888C89.3438 22.005 91.5573 20.8399 93.9455 20.8399C95.1987 20.8399 96.4256 21.2208 97.646 21.5978L97.533 24.2211H96.599C96.2785 22.7367 95.4614 22.005 93.8877 22.005C92.7238 22.005 91.8752 22.6461 91.8752 23.8441C91.8752 26.6408 97.6762 25.5913 97.6762 29.586C97.6762 32.3538 95.5494 33.4901 93.0417 33.4901C92.0223 33.4901 90.5353 33.1972 89.6617 32.6454L89.487 29.9354H90.5642C90.8558 31.3358 91.9908 32.3262 93.3031 32.3262C94.3829 32.3262 95.3445 31.655 95.3445 30.52C95.3445 28.3919 89.3412 28.8293 89.3412 24.6901L89.3438 24.6888Z" fill="white"/>
    </g>
    <defs>
        <clipPath id="clip0_6765_16105">
            <rect width="114.452" height="48" fill="white"/>
        </clipPath>
    </defs>
</svg>
