<?xml version="1.0" encoding="utf-8"?>
<!-- Generator: Adobe Illustrator 22.0.0, SVG Export Plug-In . SVG Version: 6.00 Build 0)  -->
<svg version="1.1" id="Layer_1" xmlns="http://www.w3.org/2000/svg" xmlns:xlink="http://www.w3.org/1999/xlink" x="0px" y="0px"
	 viewBox="0 0 101.3 55.1" style="enable-background:new 0 0 101.3 55.1;" xml:space="preserve">
<style type="text/css">
	.st0{clip-path:url(#SVGID_2_);fill:#0033FF;}
	.st1{clip-path:url(#SVGID_2_);fill-rule:evenodd;clip-rule:evenodd;fill:#03CC54;}
</style>
<g>
	<defs>
		<rect id="SVGID_1_" x="-17.5" y="-18.8" width="140.5" height="92.4"/>
	</defs>
	<clipPath id="SVGID_2_">
		<use xlink:href="#SVGID_1_"  style="overflow:visible;"/>
	</clipPath>
	<path class="st0" d="M19.4,38.2c0.5,0.2,0.8,0.5,0.8,0.5c-1,3.4-3.2,6.4-8.1,6.4c-5.1,0-9.6-3.8-9.6-9.7c0-6.6,5.1-10.3,10.6-10.3
		c2.3,0,4.3,0.5,5.8,1.3c0,0,0.1,0.1,0.2,0.2c0.1,0.1,0.1,0.2,0.1,0.2l0.2,5c0,0-0.3,0.3-1.2,0.3c-1,0-0.9-0.3-0.9-0.3l-0.1-0.7
		c0-2.2-1.8-3.7-4.1-3.7c-3.7,0-5.3,3.5-5.3,7.1c0,3.9,2.3,7.1,5.9,7.1c2,0,3.3-1.1,4.7-3.6C18.3,38.1,18.8,37.9,19.4,38.2 M98.7,41
		h-0.5c-0.8,0-1.5-0.8-1.5-1.5V26c0,0,0-0.4-0.5-0.4h-1.2c-0.2,0-0.4,0.2-0.4,0.2L93,28c-0.2,0.2-0.4,0-0.4,0v0
		c-1.1-1.3-2.9-2.9-6.2-2.9c-4.9,0-9.7,3.6-9.7,10.2c0,6.2,4.1,9.8,9,9.8c2.8,0,4.6-1.2,6.1-3v2.3c0,0,0,0.5,0.6,0.6
		c0.5,0.1,0.9-0.1,0.9-0.1l5.3-2.3c0,0,0.3-0.3,0.3-0.9C99,41.2,98.7,41,98.7,41 M86.8,42.6c-3.4,0-4.8-3.4-4.8-7.5
		c0-4.1,1.4-7.5,4.8-7.5c3.4,0,4.8,3.4,4.8,7.5C91.6,39.2,90.2,42.6,86.8,42.6 M30.8,42.5c0,0,0.3,0.2,0.3,0.9
		c0,0.7-0.3,1.1-0.3,1.1h-9c0,0-0.3-0.5-0.3-1.2s0.3-0.9,0.3-0.9h0.5c0.8,0,1.5-0.8,1.5-1.5v-3.6v-7.7c0-0.8-0.8-1.5-1.5-1.5h-0.5
		c0,0-0.3-0.1-0.3-0.9s0.3-1.2,0.3-1.2h9c0,0,0.3,0.4,0.3,1.1s-0.3,0.9-0.3,0.9h-0.5c-0.8,0-1.5,0.8-1.5,1.5v8.6V41
		c0,0.8,0.8,1.5,1.5,1.5H30.8 M26.3,17.2c1.8,0,3.2,1.5,3.2,3.3c0,1.8-1.4,3.3-3.2,3.3c-1.8,0-3.2-1.5-3.2-3.3
		C23.1,18.7,24.6,17.2,26.3,17.2 M54.6,47.4h1v2.4c0.3-0.4,0.7-0.8,1.4-0.8c1,0,1.6,0.7,1.6,1.7v2.8h-1V51c0-0.7-0.3-1.1-0.9-1.1
		c-0.6,0-1,0.4-1,1.1v2.5h-1V47.4z M59.5,51.4L59.5,51.4c0-1.3,0.9-2.3,2.2-2.3c1.4,0,2.1,1.1,2.1,2.4c0,0.1,0,0.2,0,0.3h-3.2
		c0.1,0.7,0.6,1.1,1.3,1.1c0.5,0,0.8-0.2,1.2-0.5l0.6,0.5c-0.4,0.5-1,0.8-1.8,0.8C60.5,53.6,59.5,52.7,59.5,51.4 M62.8,51
		c-0.1-0.7-0.5-1.2-1.1-1.2c-0.6,0-1.1,0.5-1.1,1.2H62.8z M67.5,53.5V53c-0.3,0.4-0.8,0.6-1.4,0.6c-0.8,0-1.6-0.5-1.6-1.4v0
		c0-1,0.8-1.4,1.8-1.4c0.5,0,0.9,0.1,1.2,0.2v-0.1c0-0.6-0.4-0.9-1.1-0.9c-0.5,0-0.9,0.1-1.3,0.3l-0.3-0.8c0.5-0.2,1-0.4,1.7-0.4
		c1.3,0,1.9,0.7,1.9,1.9v2.6H67.5z M67.5,51.7c-0.3-0.1-0.6-0.2-1-0.2c-0.6,0-1,0.3-1,0.7v0c0,0.4,0.4,0.7,0.9,0.7
		c0.7,0,1.2-0.4,1.2-0.9V51.7z M69.8,47.4h1v6.1h-1V47.4z M72.3,52.3V50h-0.6v-0.9h0.6v-1.2h1v1.2h1.2V50h-1.2v2.2
		c0,0.4,0.2,0.6,0.5,0.6c0.2,0,0.4-0.1,0.6-0.2v0.8c-0.3,0.1-0.5,0.2-0.9,0.2C72.9,53.6,72.3,53.3,72.3,52.3 M75.5,47.4h1v2.4
		c0.3-0.4,0.7-0.8,1.4-0.8c1,0,1.6,0.7,1.6,1.7v2.8h-1V51c0-0.7-0.3-1.1-0.9-1.1c-0.6,0-1,0.4-1,1.1v2.5h-1V47.4z M80.5,51.4
		L80.5,51.4c0-1.3,1-2.3,2.3-2.3c0.8,0,1.4,0.3,1.8,0.8l-0.6,0.7c-0.3-0.3-0.6-0.6-1.1-0.6c-0.7,0-1.3,0.6-1.3,1.4v0
		c0,0.8,0.5,1.4,1.3,1.4c0.5,0,0.8-0.2,1.1-0.6l0.6,0.6c-0.4,0.5-0.9,0.8-1.8,0.8C81.5,53.6,80.5,52.6,80.5,51.4 M88.2,53.5V53
		c-0.3,0.4-0.8,0.6-1.4,0.6c-0.8,0-1.6-0.5-1.6-1.4v0c0-1,0.8-1.4,1.8-1.4c0.5,0,0.9,0.1,1.2,0.2v-0.1c0-0.6-0.4-0.9-1.1-0.9
		c-0.5,0-0.9,0.1-1.3,0.3l-0.3-0.8c0.5-0.2,1-0.4,1.7-0.4c1.3,0,1.9,0.7,1.9,1.9v2.6H88.2z M88.2,51.7c-0.3-0.1-0.6-0.2-1-0.2
		c-0.6,0-1,0.3-1,0.7v0c0,0.4,0.4,0.7,0.9,0.7c0.7,0,1.2-0.4,1.2-0.9V51.7z M90.4,49.1h1v1c0.3-0.7,0.8-1.1,1.6-1.1v1.1h-0.1
		c-0.9,0-1.5,0.6-1.5,1.7v1.7h-1V49.1z M93.5,51.4L93.5,51.4c0-1.3,0.9-2.3,2.2-2.3c1.4,0,2.1,1.1,2.1,2.4c0,0.1,0,0.2,0,0.3h-3.2
		c0.1,0.7,0.6,1.1,1.3,1.1c0.5,0,0.8-0.2,1.2-0.5l0.6,0.5c-0.4,0.5-1,0.8-1.8,0.8C94.5,53.6,93.5,52.7,93.5,51.4 M96.7,51
		c-0.1-0.7-0.5-1.2-1.1-1.2c-0.6,0-1.1,0.5-1.1,1.2H96.7z M76.1,42.5c0,0,0.3,0.2,0.3,0.9c0,0.8-0.3,1.1-0.3,1.1h-9
		c0,0-0.3-0.4-0.3-1.2s0.3-0.9,0.3-0.9h0.5c0.8,0,1.5-0.8,1.5-1.5v-9.1c0-2.5-1.5-3.7-3.6-3.7c-2.4,0-4.3,1.9-4.3,5V41
		c0,0.8,0.8,1.5,1.5,1.5h0.5c0,0,0.3,0,0.3,0.9c0,0.8-0.3,1.2-0.3,1.2h-9c0,0-0.3-0.4-0.3-1.2c0-0.8,0.3-0.9,0.3-0.9h0.5
		c0.8,0,1.5-0.8,1.5-1.5V30.4c0-0.8-0.8-1.5-1.5-1.5h-0.5c-0.2-0.3-0.3-0.6-0.3-1c0-0.5,0.2-0.9,0.3-1c2.2,0,4.8-0.9,5.3-1.1
		c0.8-0.3,1.4-0.1,1.4,0.6c0,0.2,0,2.3,0,2.3c1.4-2,3.6-3.4,6.6-3.4c4,0,6.7,2.1,6.7,6.6V41c0,0.8,0.8,1.5,1.5,1.5H76.1z M52.2,27.7
		c0-0.5-0.2-1-0.3-1.2h-5.1c-1.4-0.9-3.1-1.4-5-1.4c-4.7,0-8.2,3.2-8.2,7.1c0,2.4,1.3,4.4,3.2,5.7l-3.2,4c0,0-0.4,0.7-0.4,1.5
		c0,0.7,0.5,1.2,0.5,1.2h2.3c-1.7,1-2.4,2.6-2.4,4.1c0,2.7,2.4,5,7.8,5c5.4,0,10.5-2.9,10.5-7.4c0-3.2-1.9-5.4-6.7-5.4h-7.2l1.4-1.9
		c0.8,0.3,1.5,0.4,2.6,0.4c4.7,0,8.2-3.2,8.2-7.1c0-1.2-0.3-2.4-0.9-3.4h2.8C52,28.6,52.2,28.2,52.2,27.7 M39.2,44.6h4.3
		c2.6,0,3.4,1.4,3.4,2.9c0,1.8-1.8,3.7-4.9,3.7c-3,0-4.7-1.3-4.7-3.3C37.3,46.5,38.1,45.2,39.2,44.6 M41.8,37
		c-2.1,0-3.5-1.8-3.5-4.8c0-3,1.4-4.8,3.5-4.8c2.1,0,3.5,1.8,3.5,4.8C45.3,35.2,43.9,37,41.8,37"/>
	<path class="st1" d="M24,9.4c0-2,0.9-3.9,2.4-5.1c1.4,1.2,2.4,3.1,2.4,5.1c0,2-0.9,3.9-2.4,5.1C24.9,13.3,24,11.4,24,9.4 M31.1,4.2
		c-0.6,1.4-0.5,3,0.2,4.3C32.7,8,33.9,7,34.5,5.5c0.6-1.4,0.5-3-0.2-4.3C32.9,1.7,31.7,2.7,31.1,4.2 M18.2,5.5
		c0.6,1.4,1.8,2.5,3.1,2.9c0.7-1.3,0.8-2.8,0.2-4.3c-0.6-1.4-1.8-2.5-3.1-2.9C17.7,2.5,17.6,4.1,18.2,5.5 M10,15.6
		c1.4,0.6,3,0.5,4.3-0.2c-0.4-1.4-1.4-2.5-2.9-3.1c-1.4-0.6-3-0.5-4.3,0.2C7.5,13.9,8.5,15,10,15.6 M41.3,12.4
		c-1.4,0.6-2.4,1.8-2.9,3.1c1.3,0.7,2.8,0.8,4.3,0.2c1.4-0.6,2.4-1.8,2.9-3.1C44.2,11.9,42.7,11.8,41.3,12.4 M37.4,18.2
		c-2,0-3.9,0.9-5.1,2.4c1.2,1.4,3,2.4,5.1,2.4c2,0,3.9-0.9,5.1-2.4C41.3,19.1,39.4,18.2,37.4,18.2 M32.5,11
		c-1.4,1.4-2.1,3.4-1.9,5.3c1.9,0.2,3.8-0.5,5.3-1.9c1.4-1.4,2.1-3.4,1.9-5.3C35.9,8.9,33.9,9.5,32.5,11 M15.2,18.2
		c-2,0-3.9,0.9-5.1,2.4c1.2,1.4,3.1,2.4,5.1,2.4c2,0,3.9-0.9,5.1-2.4C19.1,19.1,17.3,18.2,15.2,18.2 M20.1,11
		c-1.4-1.4-3.4-2.1-5.3-1.9c-0.2,1.9,0.5,3.8,1.9,5.3c1.4,1.4,3.4,2.1,5.3,1.9C22.2,14.4,21.6,12.4,20.1,11"/>
</g>
</svg>
