<?xml version="1.0" encoding="UTF-8"?> <!-- Generator: Adobe Illustrator 26.1.0, SVG Export Plug-In . SVG Version: 6.00 Build 0) --> <svg xmlns="http://www.w3.org/2000/svg" xmlns:xlink="http://www.w3.org/1999/xlink" version="1.1" x="0px" y="0px" width="919.5px" height="337.5px" viewBox="0 0 919.5 337.5" style="enable-background:new 0 0 919.5 337.5;" xml:space="preserve"> <style type="text/css"> .st0{fill:#FFFFFF;} .st1{fill-rule:evenodd;clip-rule:evenodd;fill:#D81E05;} .st2{fill:#D81E05;} .st3{fill-rule:evenodd;clip-rule:evenodd;fill:#FFFFFF;} </style> <g id="Base._Retícula"> </g> <g id="Capa_1"> <g> <g> <path class="st1" d="M139.7,117c1,0.4,1.6,1.4,1.6,2.5c0,0.6-0.2,1.1-0.5,1.6l-9,15.4c-0.2,0.4-0.7,0.7-1.2,0.7 c-0.5,0-1-0.3-1.2-0.8l-8.9-15.4c-0.3-0.4-0.5-1-0.5-1.5c0-1.1,0.6-2,1.5-2.4c3-1.1,6-1.7,9.1-1.7c3.1,0,6.1,0.5,8.9,1.6 L139.7,117z M113.3,122c0.7-0.5,1.6-0.6,2.4-0.1c0.4,0.2,0.7,0.6,0.9,1l7.2,12.6c0.2,0.3,0.2,0.8,0.1,1.2 c-0.2,0.4-0.7,0.6-1.1,0.5l-14.5,0c-0.4,0-0.9,0-1.3-0.3c-0.8-0.4-1.2-1.3-1.1-2.1c0.5-2.6,1.3-4.9,2.5-7.1 C109.8,125.5,111.4,123.6,113.3,122L113.3,122z M148,122c-0.7-0.5-1.6-0.6-2.4-0.1c-0.4,0.2-0.7,0.6-0.9,1l-7.2,12.6 c-0.2,0.3-0.3,0.8,0,1.2c0.2,0.4,0.6,0.6,1,0.5l14.5,0c0.4,0,0.9,0,1.3-0.3c0.8-0.4,1.2-1.3,1.1-2.1c-0.4-2.6-1.3-4.9-2.5-7.1 C151.5,125.5,149.9,123.6,148,122L148,122z M132.8,141.5v13.4h-4.3v-13.4c-2.1,0-4.8,0-5.8-0.1l-14.3,0c-1.2,0.1-2.5-0.2-3.6-0.9 c-2.2-1.2-3.3-3.6-3.2-5.9c0-0.3,0-0.6,0.1-0.9c0.5-2.8,1.5-5.6,3-8.3c1.5-2.7,3.5-4.9,5.7-6.8c1.5-1.1,3.6-1.6,5.5-1.3 c0.5-1.9,1.8-3.4,3.5-4.2c0.3-0.2,0.6-0.3,0.8-0.4c3.2-1.2,6.7-1.8,10.3-1.8c3.6,0,7.1,0.6,10.4,1.8c1.9,0.8,3.5,2.5,4.2,4.5 c1.8-0.4,3.7,0,5.2,1.1c2.2,1.9,4.5,4.4,6,7c1.5,2.6,2.5,5.4,3,8.3c0,0.3,0.1,0.5,0.1,0.9c0.1,2.3-1.1,4.6-3.2,5.9 c-1.1,0.6-2.3,0.9-3.6,0.9l-14.3,0C137.6,141.5,134.9,141.5,132.8,141.5z M130.7,93.3C108.8,93.3,91,111.1,91,133 c0,21.9,17.8,39.7,39.7,39.7c21.9,0,39.7-17.8,39.7-39.7C170.4,111.1,152.6,93.3,130.7,93.3z M130.7,89.1 c24.2,0,43.9,19.6,43.9,43.9c0,24.2-19.7,43.9-43.9,43.9c-24.2,0-43.9-19.6-43.9-43.9C86.8,108.8,106.4,89.1,130.7,89.1z"></path> <g> <polygon class="st2" points="243.9,88.9 265.4,132.9 286.9,88.9 319.3,88.9 319.3,176.9 286.9,176.9 286.9,132.9 265.4,176.9 243.9,132.9 243.9,176.9 211.5,176.9 211.5,88.9 "></polygon> <path class="st2" d="M383.7,102.1L370.5,148h26.3L383.7,102.1z M329.8,176.9L355,88.9h57.4l25.2,87.9h-32.4l-4.2-14.4h-34.6 l-4.2,14.4H329.8z"></path> <path class="st1" d="M488,99.1c7.3,0,14.4,3.9,14.4,11.9c0,8-6.3,14.4-14.4,14.4h-7V99.1H488z M508.7,89 c14.2,0,25.7,11.5,25.7,25.6c0,14.1-11.5,25.6-25.7,25.6h-28.3v36.6H448V89H508.7z"></path> <polygon class="st2" points="545.6,88.9 631.9,88.9 631.9,103.4 578.1,103.4 578.1,125.7 631.9,125.7 631.9,140.2 578.1,140.2 578.1,176.9 545.6,176.9 "></polygon> <polygon class="st2" points="774.3,162.4 828.2,162.4 828.2,176.9 741.9,176.9 741.9,88.9 828.2,88.9 828.2,103.4 774.3,103.4 774.3,125.7 828.2,125.7 828.2,140.2 774.3,140.2 "></polygon> <path class="st1" d="M683.3,99.1c7.1,0,14.5,3.9,14.5,11.9c0,8-6.5,14.4-14.5,14.4h-7V99.1H683.3z M729.7,154.2v0.7 C729.7,154.6,729.7,154.4,729.7,154.2z M729.7,154.9v22h-22h-9.9v-21.3c0-0.2,0-0.5,0-0.7c0-8-6.5-14.4-14.5-14.4h-7v36.4h-33 v-43.9V89h36.1h28.3c12.1,0,22,9.8,22,21.9c0,12.2-9.8,22-22,22c11.9,0,21.6,9.4,22,21.3C729.7,154.4,729.7,154.6,729.7,154.9z"></path> </g> </g> <g> <path class="st2" d="M93.7,246c0,6.1,2.4,8.1,9.6,8.1c2.6,0,6.9-0.3,10.3-0.9l0.6,4.9c-3.2,0.7-7.8,1.2-11.1,1.2 c-10.8,0-15-4.6-15-12.9v-19.4c0-8.3,4.3-12.9,15-12.9c3.3,0,7.9,0.5,11.1,1.2l-0.6,4.9c-3.4-0.6-7.7-0.9-10.3-0.9 c-7.2,0-9.6,2-9.6,8.1V246z"></path> <path class="st2" d="M127.4,226.4V251c0,2.1,1.1,3,3.1,3c2.4,0,7.3-1.5,10.8-3.2v-24.3h5.5v32.1h-4.5l-0.5-2.8 c-3.6,1.7-9.1,3.4-12.9,3.4c-5.1,0-7-3.2-7-8.2v-24.6H127.4z"></path> <path class="st2" d="M157.4,221.3v-8h5.5v8H157.4z M157.4,258.6v-32.1h5.5v32.1H157.4z"></path> <path class="st2" d="M172.4,236.3c0-6.4,2.9-10.5,10.4-10.5c2.8,0,6.6,0.5,9.2,1v-13.5l5.5-0.8v46.1h-4.7l-0.5-2.9 c-2.6,2.1-6.4,3.6-10.6,3.6c-6.3,0-9.4-3.4-9.4-9.8V236.3z M192,231.7c-3-0.6-6.6-1-8.8-1c-3.7,0-5.2,1.7-5.2,5.6v13.1 c0,3.3,1.1,4.9,5,4.9c3.2,0,6.7-1.7,9.1-3.8V231.7z"></path> <path class="st2" d="M230.9,258.6h-4.7l-0.3-2.4c-2.8,2-6.5,3-10.4,3c-6,0-8.5-3.6-8.5-9.2c0-6.7,3.4-9,9.8-9h8.6v-5 c0-4-1.8-5.4-7-5.4c-3.1,0-7.1,0.5-9.6,1.1l-0.6-4.4c3-0.8,7.1-1.4,10.6-1.4c9.2,0,12.2,3.6,12.2,10.4V258.6z M225.4,245.6h-8.2 c-3.4,0-4.7,1.1-4.7,4.3c0,3.3,0.6,4.6,4.6,4.6c2.8,0,5.9-1.1,8.3-2.6V245.6z"></path> <path class="st2" d="M279.6,258.6V234c0-2.1-1.1-3-3.1-3c-2.6,0-7.3,1.5-10.8,3.2v24.3h-5.5V234c0-2.1-1.1-3-3.1-3 c-2.4,0-7.3,1.5-10.8,3.2v24.3h-5.5v-32.1h4.5l0.5,2.8c3.6-1.7,9.1-3.4,12.9-3.4c3.3,0,5.2,1.3,6.1,3.4c3.8-1.8,9.2-3.4,13.3-3.4 c5.1,0,7,3.2,7,8.2v24.6H279.6z"></path> <path class="st2" d="M306.8,259.2c-9.4,0-13.1-5.3-13.1-12.1v-9.3c0-6.7,3.7-12.1,13.1-12.1s13.1,5.3,13.1,12.1v9.3 C319.9,253.9,316.2,259.2,306.8,259.2z M306.8,230.6c-5,0-7.5,2.4-7.5,7.1v9.7c0,4.7,2.5,7.1,7.5,7.1s7.5-2.4,7.5-7.1v-9.7 C314.3,233,311.8,230.6,306.8,230.6z"></path> <path class="st2" d="M337.8,259.2c-3.3,0-7.7-0.7-10.2-1.7l0.7-4.4c2.8,0.8,6.4,1.3,9.2,1.3c5.1,0,5.9-0.9,5.9-4.4 s-0.3-3.8-6.7-5.4c-8-2-8.7-3.6-8.7-10.3c0-5.9,2.6-8.6,11.1-8.6c3.1,0,6.5,0.4,9.1,1.1l-0.4,4.6c-2.7-0.5-6.3-0.9-8.9-0.9 c-4.8,0-5.4,1.1-5.4,4c0,3.6,0.1,4.2,5.5,5.5c9.2,2.3,10,3.4,10,9.8C348.9,256.2,346.9,259.2,337.8,259.2z"></path> <path class="st2" d="M372.2,258.6v-45.3l5.5-0.8v46.1H372.2z"></path> <path class="st2" d="M399.7,259.2c-9.4,0-13.1-5.3-13.1-12.1v-9.3c0-6.7,3.7-12.1,13.1-12.1s13.1,5.3,13.1,12.1v9.3 C412.8,253.9,409.1,259.2,399.7,259.2z M399.7,230.6c-5,0-7.5,2.4-7.5,7.1v9.7c0,4.7,2.5,7.1,7.5,7.1s7.5-2.4,7.5-7.1v-9.7 C407.3,233,404.8,230.6,399.7,230.6z"></path> <path class="st2" d="M434.6,237.8c0-7.3,2.6-12,13.7-12c3,0,7.8,0.4,11.5,1.3v44.5l-5.5,0.8V257c-2.2,1.2-6.1,2.2-10.2,2.2 c-6.7,0-9.4-3.9-9.4-10V237.8z M454.2,231.1c-2.2-0.3-4.4-0.5-6.3-0.5c-6.5,0-7.7,2.6-7.7,6.9v11.8c0,3.3,1.5,4.9,5.2,4.9 c2.8,0,6.7-1.4,8.8-2.4V231.1z"></path> <path class="st2" d="M475.6,226.4V251c0,2.1,1.1,3,3.1,3c2.4,0,7.3-1.5,10.8-3.2v-24.3h5.5v32.1h-4.5l-0.5-2.8 c-3.6,1.7-9.1,3.4-12.9,3.4c-5.1,0-7-3.2-7-8.2v-24.6H475.6z"></path> <path class="st2" d="M517.2,254.5c3.2,0,6.7-0.6,10.2-1.5l0.7,4.4c-3,1.1-7.3,1.8-11.4,1.8c-9.5,0-12.7-4.6-12.7-11.8v-9.6 c0-6.7,3-12,12.6-12c9.5,0,12.1,5.5,12.1,12.1v6.7h-19.1v2.7C509.5,252.4,510.9,254.5,517.2,254.5z M509.5,240h13.8v-2.6 c0-4.5-1.5-7-6.7-7c-5.2,0-7.1,2.5-7.1,7V240z"></path> <path class="st2" d="M568.4,258.1c-2,0.7-4.4,1.2-6.7,1.2c-5.4,0-8-2-8-7.3v-20.9H548v-4.6h5.7v-7.9l5.5-0.8v8.7h9.1l-0.5,4.6 h-8.6V251c0,2.4,0.3,3.6,3.3,3.6c1.5,0,3.1-0.3,5.1-0.8L568.4,258.1z"></path> <path class="st2" d="M587.6,254.5c3.2,0,6.7-0.6,10.2-1.5l0.7,4.4c-3,1.1-7.3,1.8-11.4,1.8c-9.5,0-12.7-4.6-12.7-11.8v-9.6 c0-6.7,3-12,12.6-12c9.5,0,12.1,5.5,12.1,12.1v6.7H580v2.7C580,252.4,581.4,254.5,587.6,254.5z M580,240h13.8v-2.6 c0-4.5-1.5-7-6.7-7c-5.2,0-7.1,2.5-7.1,7V240z"></path> <path class="st2" d="M622.2,221.3v-8h5.5v8H622.2z M622.2,258.6v-32.1h5.5v32.1H622.2z"></path> <path class="st2" d="M677.1,258.6V234c0-2.1-1.1-3-3.1-3c-2.6,0-7.3,1.5-10.8,3.2v24.3h-5.5V234c0-2.1-1.1-3-3.1-3 c-2.4,0-7.3,1.5-10.8,3.2v24.3h-5.5v-32.1h4.5l0.5,2.8c3.6-1.7,9.1-3.4,12.9-3.4c3.3,0,5.2,1.3,6.1,3.4c3.8-1.8,9.2-3.4,13.3-3.4 c5.1,0,7,3.2,7,8.2v24.6H677.1z"></path> <path class="st2" d="M718.1,248.8c0,6.4-2.9,10.5-10.4,10.5c-2.8,0-6.6-0.5-9.2-1v13.3l-5.5,0.8v-45.9h4.7l0.5,2.9 c2.6-2.1,6.4-3.6,10.6-3.6c6.3,0,9.4,3.4,9.4,9.8V248.8z M698.5,253.4c3,0.6,6.6,1,8.8,1c3.7,0,5.2-1.7,5.2-5.6v-13.1 c0-3.3-1.1-5-4.9-5c-3.2,0-6.7,1.7-9.1,3.8V253.4z"></path> <path class="st2" d="M739,259.2c-9.4,0-13.1-5.3-13.1-12.1v-9.3c0-6.7,3.7-12.1,13.1-12.1s13.1,5.3,13.1,12.1v9.3 C752,253.9,748.3,259.2,739,259.2z M739,230.6c-5,0-7.5,2.4-7.5,7.1v9.7c0,4.7,2.5,7.1,7.5,7.1s7.5-2.4,7.5-7.1v-9.7 C746.5,233,744,230.6,739,230.6z"></path> <path class="st2" d="M775.7,230.9c-3,1.5-6.5,3.7-9.2,5.5v22.2H761v-32.1h4.8l0.3,4.5c2.4-1.8,5.7-3.8,8.8-5.1L775.7,230.9z"></path> <path class="st2" d="M798.7,258.1c-2,0.7-4.4,1.2-6.7,1.2c-5.4,0-8-2-8-7.3v-20.9h-5.7v-4.6h5.7v-7.9l5.5-0.8v8.7h9.1l-0.5,4.6 h-8.6V251c0,2.4,0.3,3.6,3.3,3.6c1.5,0,3.1-0.3,5.1-0.8L798.7,258.1z"></path> <path class="st2" d="M829.1,258.6h-4.7l-0.3-2.4c-2.8,2-6.5,3-10.4,3c-6,0-8.5-3.6-8.5-9.2c0-6.7,3.4-9,9.8-9h8.6v-5 c0-4-1.8-5.4-7-5.4c-3.1,0-7.1,0.5-9.6,1.1l-0.6-4.4c3-0.8,7.1-1.4,10.6-1.4c9.2,0,12.2,3.6,12.2,10.4V258.6z M823.6,245.6h-8.2 c-3.4,0-4.7,1.1-4.7,4.3c0,3.3,0.6,4.6,4.6,4.6c2.8,0,5.9-1.1,8.3-2.6V245.6z"></path> </g> </g> </g> </svg> 
