<svg width="56" height="75" viewBox="0 0 56 75" fill="none" xmlns="http://www.w3.org/2000/svg">
<path d="M5.84262 60.6676H7.67489C8.77129 60.6676 9.37382 61.285 9.26023 62.2283C9.15652 63.2851 8.22803 63.8284 7.18102 63.8284H6.25254L6.06981 65.31H5.25L5.84262 60.6676ZM7.32423 63.0925C7.58018 63.1201 7.83704 63.0492 8.04255 62.8941C8.24806 62.7391 8.3868 62.5116 8.43053 62.2579C8.49967 61.7097 8.13914 61.4232 7.52674 61.4232H6.57357L6.36612 63.1024L7.32423 63.0925Z" fill="white"/>
<path d="M9.36386 63.5815C9.39902 63.1035 9.60679 62.6546 9.94843 62.3184C10.2901 61.9822 10.7423 61.7817 11.2208 61.7542C11.4474 61.7455 11.672 61.7989 11.8705 61.9086C12.0689 62.0182 12.2337 62.18 12.3469 62.3765L12.416 61.8283H13.221L12.7913 65.3496H11.9814L12.0555 64.7619C11.9059 64.9623 11.7124 65.1257 11.4898 65.2396C11.2672 65.3535 11.0214 65.4147 10.7714 65.4187C9.94664 65.4039 9.22064 64.7471 9.36386 63.5815ZM12.2086 63.5815C12.2406 63.4477 12.2419 63.3083 12.2124 63.1738C12.183 63.0393 12.1236 62.9132 12.0386 62.805C11.9536 62.6967 11.8452 62.609 11.7216 62.5485C11.5979 62.488 11.4622 62.4562 11.3245 62.4555C11.0269 62.4661 10.744 62.5874 10.5311 62.7957C10.3183 63.004 10.1909 63.2842 10.1738 63.5815V63.5815C10.141 63.7147 10.1388 63.8535 10.1673 63.9877C10.1958 64.1218 10.2543 64.2478 10.3384 64.3561C10.4225 64.4645 10.53 64.5523 10.6529 64.6132C10.7757 64.6741 10.9108 64.7063 11.048 64.7076C11.3449 64.6919 11.626 64.5692 11.8394 64.3621C12.0527 64.1551 12.1839 63.8778 12.2086 63.5815V63.5815Z" fill="white"/>
<path d="M14.0657 61.8135H14.8756L14.7768 62.6086C14.8915 62.3472 15.0815 62.1258 15.3225 61.9727C15.5635 61.8197 15.8446 61.7419 16.13 61.7493L16.0263 62.5987H15.9769C15.2707 62.5987 14.7225 63.058 14.604 63.9915L14.441 65.3348H13.636L14.0657 61.8135Z" fill="white"/>
<path d="M16.5103 64.357L16.7375 62.505H16.2881L16.372 61.8135H16.8215L16.94 60.8258H17.745L17.6265 61.8135H18.5747L18.4908 62.505H17.5524L17.34 64.2335C17.3005 64.5447 17.4487 64.6731 17.7203 64.6731C17.8916 64.6697 18.0601 64.6293 18.2142 64.5545L18.1352 65.2114C17.9046 65.3353 17.6462 65.3982 17.3845 65.3941C16.8017 65.3941 16.4116 65.1324 16.5103 64.357Z" fill="white"/>
<path d="M18.8166 63.5865C18.8642 63.0973 19.0876 62.6419 19.4454 62.3049C19.8033 61.968 20.2713 61.7723 20.7625 61.7543C21.8836 61.7543 22.3429 62.6334 22.2441 63.6458C22.2336 63.7223 22.2187 63.7982 22.1996 63.873H19.6118C19.606 63.9928 19.6256 64.1124 19.6691 64.2241C19.7126 64.3358 19.7791 64.4371 19.8644 64.5214C19.9496 64.6058 20.0517 64.6712 20.1638 64.7135C20.276 64.7557 20.3959 64.774 20.5156 64.7669C20.8866 64.7593 21.2403 64.6089 21.5033 64.3471L21.9231 64.7669C21.7306 64.9784 21.4956 65.1466 21.2334 65.2607C20.9712 65.3748 20.6879 65.432 20.402 65.4287C20.1671 65.443 19.9321 65.4028 19.7153 65.3113C19.4985 65.2197 19.3058 65.0793 19.1523 64.9009C18.9988 64.7225 18.8887 64.5111 18.8304 64.2831C18.7722 64.0551 18.7675 63.8167 18.8166 63.5865ZM21.4539 63.3248C21.4539 62.8062 21.207 62.4012 20.6736 62.4012C20.4233 62.4167 20.1855 62.5163 19.999 62.684C19.8125 62.8517 19.6882 63.0775 19.6463 63.3248H21.4539Z" fill="white"/>
<path d="M24.2591 63.5815C24.2943 63.1035 24.502 62.6545 24.8437 62.3183C25.1853 61.9821 25.6376 61.7816 26.1161 61.7542C26.3427 61.7455 26.5673 61.7989 26.7657 61.9085C26.9642 62.0182 27.1289 62.18 27.2421 62.3765L27.4742 60.48H28.2792L27.6816 65.3496H26.8766L26.9458 64.7619C26.7978 64.9627 26.6053 65.1265 26.3833 65.2405C26.1614 65.3544 25.9161 65.4154 25.6666 65.4187C24.8419 65.4039 24.1159 64.747 24.2591 63.5815ZM27.1038 63.5815C27.1357 63.448 27.1371 63.3091 27.108 63.175C27.0788 63.0408 27.0198 62.915 26.9354 62.8068C26.8509 62.6987 26.7432 62.6109 26.6201 62.5501C26.4971 62.4893 26.362 62.4569 26.2247 62.4555C25.9271 62.4661 25.6442 62.5874 25.4313 62.7957C25.2185 63.0039 25.091 63.2842 25.074 63.5815V63.5815C25.0422 63.7146 25.0406 63.8531 25.0695 63.9869C25.0984 64.1206 25.157 64.2462 25.2409 64.3543C25.3248 64.4623 25.4319 64.5502 25.5543 64.6114C25.6767 64.6725 25.8113 64.7054 25.9482 64.7075C26.2438 64.6897 26.5232 64.5661 26.7353 64.3594C26.9475 64.1527 27.0783 63.8766 27.1038 63.5815Z" fill="white"/>
<path d="M28.5507 63.5865C28.5983 63.0973 28.8217 62.6419 29.1795 62.3049C29.5374 61.968 30.0054 61.7723 30.4966 61.7543C31.6177 61.7543 32.077 62.6334 31.9535 63.6458C31.943 63.7223 31.9282 63.7982 31.9091 63.873H29.3212C29.3154 63.9928 29.3349 64.1124 29.3785 64.2241C29.422 64.3358 29.4885 64.4371 29.5738 64.5214C29.659 64.6058 29.761 64.6712 29.8732 64.7135C29.9854 64.7557 30.1053 64.774 30.2249 64.7669C30.5959 64.7593 30.9497 64.6089 31.2127 64.3471L31.6325 64.7669C31.44 64.9784 31.205 65.1466 30.9428 65.2607C30.6806 65.3748 30.3973 65.432 30.1114 65.4287C29.8785 65.4391 29.6463 65.3959 29.4327 65.3027C29.2191 65.2094 29.0297 65.0684 28.879 64.8906C28.7283 64.7127 28.6204 64.5027 28.5635 64.2767C28.5066 64.0506 28.5022 63.8145 28.5507 63.5865V63.5865ZM31.188 63.3248C31.188 62.8062 30.9411 62.4012 30.4077 62.4012C30.1603 62.4225 29.9272 62.5259 29.7455 62.6951C29.5638 62.8643 29.444 63.0894 29.4051 63.3347L31.188 63.3248Z" fill="white"/>
<path d="M34.6205 60.6677H36.7145C36.9278 60.6497 37.1426 60.6774 37.3444 60.7489C37.5463 60.8204 37.7305 60.9342 37.8849 61.0826C37.9766 61.1865 38.0438 61.3096 38.0814 61.443C38.119 61.5764 38.1261 61.7165 38.1022 61.853V61.853C38.0737 62.0809 37.985 62.2971 37.8452 62.4793C37.7055 62.6616 37.5198 62.8034 37.3071 62.8901C37.5614 62.9382 37.7866 63.0842 37.9343 63.2966C38.0821 63.509 38.1406 63.7709 38.0973 64.026V64.026C37.9985 64.8607 37.2528 65.3101 36.2156 65.3101H34.0525L34.6205 60.6677ZM36.4033 63.3247H35.0995L34.9464 64.6088H36.3194C36.8774 64.6088 37.2478 64.3866 37.3071 63.9668C37.3318 63.5618 37.0503 63.3346 36.4033 63.3346V63.3247ZM37.2676 61.9864C37.312 61.6209 37.0454 61.3937 36.5169 61.3937H35.3316L35.1785 62.6333H36.3194C36.8429 62.6333 37.2232 62.4259 37.2775 62.0012L37.2676 61.9864Z" fill="white"/>
<path d="M38.7197 64.0507L38.9913 61.8135H39.8012L39.5543 63.8136C39.4901 64.3569 39.7222 64.6681 40.2062 64.6681C40.4392 64.667 40.6627 64.5759 40.8302 64.414C40.9977 64.252 41.0961 64.0317 41.1051 63.7988L41.347 61.8234H42.1619L41.7273 65.3447H40.9174L40.9816 64.7965C40.8472 64.9837 40.6709 65.137 40.4669 65.2442C40.2628 65.3513 40.0366 65.4094 39.8062 65.4138C39.011 65.4039 38.6159 64.8705 38.7197 64.0507Z" fill="white"/>
<path d="M43.0015 61.8134H43.8065L43.7374 62.4011C43.8851 62.1997 44.0774 62.0351 44.2993 61.9203C44.5212 61.8055 44.7667 61.7436 45.0165 61.7394C45.8412 61.7394 46.5722 62.3913 46.424 63.5667C46.3877 64.0438 46.1794 64.4916 45.8379 64.8268C45.4964 65.1619 45.0448 65.3617 44.5671 65.3891C44.3411 65.3977 44.117 65.3449 43.9187 65.2361C43.7204 65.1274 43.5553 64.9669 43.441 64.7717L43.2435 66.3817H42.4385L43.0015 61.8134ZM45.6042 63.5815C45.6379 63.4487 45.641 63.3099 45.6131 63.1757C45.5853 63.0416 45.5273 62.9154 45.4436 62.807C45.3598 62.6985 45.2525 62.6105 45.1298 62.5496C45.007 62.4887 44.872 62.4565 44.735 62.4555C44.4379 62.472 44.1567 62.5949 43.9427 62.8017C43.7287 63.0084 43.5962 63.2852 43.5694 63.5815C43.5383 63.7157 43.5378 63.8552 43.5679 63.9897C43.598 64.1241 43.6579 64.25 43.7433 64.3582C43.8287 64.4663 43.9373 64.5538 44.061 64.6143C44.1848 64.6748 44.3206 64.7067 44.4584 64.7075C44.7551 64.6958 45.0369 64.5739 45.2487 64.3657C45.4605 64.1576 45.5872 63.878 45.6042 63.5815Z" fill="white"/>
<path d="M46.908 63.5815C46.9432 63.1035 47.151 62.6546 47.4926 62.3184C47.8343 61.9822 48.2865 61.7817 48.765 61.7542C48.9916 61.7455 49.2162 61.7989 49.4147 61.9086C49.6131 62.0182 49.7778 62.18 49.891 62.3765L49.9552 61.8283H50.7652L50.3306 65.3496H49.5256L49.5947 64.7619C49.4462 64.9622 49.2536 65.1256 49.0317 65.2395C48.8099 65.3534 48.5649 65.4147 48.3156 65.4187C47.4908 65.4039 46.7648 64.7471 46.908 63.5815ZM49.7577 63.5815C49.7896 63.4481 49.791 63.3091 49.7619 63.175C49.7327 63.0409 49.6737 62.9151 49.5892 62.8069C49.5048 62.6987 49.397 62.6109 49.274 62.5501C49.151 62.4893 49.0158 62.4569 48.8786 62.4555C48.581 62.4661 48.298 62.5874 48.0852 62.7957C47.8723 63.004 47.7449 63.2842 47.7279 63.5815V63.5815C47.696 63.7146 47.6945 63.8532 47.7234 63.9869C47.7523 64.1207 47.8109 64.2462 47.8948 64.3543C47.9787 64.4624 48.0858 64.5502 48.2082 64.6114C48.3306 64.6725 48.4652 64.7054 48.602 64.7076C48.8977 64.6897 49.1771 64.5662 49.3892 64.3594C49.6014 64.1527 49.7322 63.8766 49.7577 63.5815Z" fill="white"/>
<path d="M53.338 19.2955L51.2391 23.6416C51.1797 23.7623 51.0875 23.8639 50.9731 23.9346C50.8587 24.0054 50.7266 24.0424 50.5921 24.0416C50.4124 24.0398 50.2399 23.9709 50.1084 23.8485C49.9768 23.7261 49.8957 23.5589 49.8809 23.3798L48.5771 8.60323L45.7868 20.8018C45.7593 20.9192 45.6978 21.0259 45.6099 21.1085C45.522 21.1911 45.4118 21.2459 45.2929 21.2661C45.1687 21.2827 45.0423 21.2614 44.9304 21.205C44.8185 21.1486 44.7262 21.0597 44.6657 20.95L43.3075 18.4411C42.8161 19.1146 42.1692 19.6594 41.422 20.0291C40.6748 20.3989 39.8493 20.5826 39.0158 20.5648H27.9235L28.0716 19.3252H39.0158C39.7717 19.3317 40.5148 19.1302 41.1638 18.7425C41.8128 18.3549 42.3426 17.7961 42.6951 17.1274C42.7719 16.9737 42.8835 16.8401 43.0211 16.7373C43.0926 16.69 43.1732 16.6581 43.2578 16.6437C43.3423 16.6293 43.4289 16.6326 43.5121 16.6535C43.5953 16.6744 43.6732 16.7124 43.7408 16.7651C43.8085 16.8178 43.8644 16.884 43.9051 16.9595L44.9867 18.935L47.9746 5.97584C48.0207 5.79551 48.1285 5.63706 48.2794 5.52807C48.4302 5.41909 48.6146 5.36647 48.8002 5.3794C48.9859 5.39233 49.1611 5.46997 49.2954 5.59881C49.4297 5.72765 49.5146 5.89952 49.5352 6.08449L50.9428 21.6167L52.7651 17.7201C52.81 17.6354 52.8739 17.5622 52.952 17.5065C53.03 17.4508 53.1199 17.414 53.2146 17.3991C53.3093 17.3829 53.4064 17.3892 53.4982 17.4175C53.59 17.4458 53.6739 17.4953 53.743 17.562C53.8756 17.7076 53.9825 17.8746 54.0591 18.0559C54.2912 18.5004 54.7209 19.3252 55.2789 19.3252H56V0H0V56H56V20.5648H55.2789C54.8737 20.5376 54.4822 20.4066 54.1423 20.1843C53.8024 19.962 53.5254 19.6559 53.338 19.2955V19.2955Z" fill="#0079C8"/>
<path d="M56.0001 19.3252V20.5649H55.279C54.8737 20.5377 54.4823 20.4067 54.1424 20.1844C53.8024 19.9621 53.5254 19.656 53.3381 19.2956L51.2391 23.6417C51.1798 23.7624 51.0876 23.8639 50.9732 23.9347C50.8587 24.0054 50.7267 24.0425 50.5922 24.0417C50.4125 24.0399 50.24 23.971 50.1084 23.8486C49.9769 23.7261 49.8958 23.559 49.881 23.3799L48.5772 8.60331L45.7868 20.8019C45.7593 20.9193 45.6978 21.026 45.61 21.1086C45.5221 21.1912 45.4118 21.246 45.2929 21.2662C45.1687 21.2828 45.0424 21.2615 44.9305 21.2051C44.8186 21.1487 44.7263 21.0598 44.6657 20.9501L43.3076 18.4412C42.8161 19.1147 42.1693 19.6594 41.4221 20.0292C40.6748 20.3989 39.8494 20.5827 39.0158 20.5649H27.9235L28.0717 19.3252H39.0158C39.7718 19.3318 40.5149 19.1303 41.1639 18.7426C41.8128 18.355 42.3426 17.7962 42.6952 17.1275C42.7719 16.9738 42.8835 16.8402 43.0211 16.7374C43.0927 16.6901 43.1733 16.6582 43.2578 16.6438C43.3424 16.6293 43.429 16.6327 43.5121 16.6536C43.5953 16.6745 43.6732 16.7125 43.7409 16.7652C43.8086 16.8179 43.8645 16.8841 43.9052 16.9596L44.9867 18.9351L47.9747 5.97592C48.0207 5.7956 48.1286 5.63714 48.2794 5.52816C48.4303 5.41917 48.6146 5.36656 48.8003 5.37948C48.9859 5.39241 49.1612 5.47005 49.2955 5.59889C49.4298 5.72773 49.5147 5.8996 49.5353 6.08457L50.9428 21.6168L52.7652 17.7202C52.81 17.6354 52.874 17.5623 52.952 17.5066C53.03 17.4509 53.1199 17.4141 53.2146 17.3991C53.3093 17.383 53.4065 17.3893 53.4983 17.4176C53.5901 17.4459 53.6739 17.4954 53.7431 17.5621C53.8756 17.7077 53.9825 17.8747 54.0591 18.056C54.2913 18.5005 54.7209 19.3252 55.279 19.3252H56.0001ZM6.69695 13.8927C8.35635 13.8927 9.6256 13.0136 9.80833 11.5369C9.97131 10.2281 9.18605 9.63056 7.56616 9.22559C6.08455 8.86012 5.76353 8.59343 5.83761 7.98103C5.92651 7.40814 6.42038 7.00811 7.2402 7.00811C7.99701 7.02774 8.72199 7.31668 9.28483 7.823L10.154 6.77105C9.40194 6.10067 8.41991 5.74678 7.41306 5.78331C5.84749 5.78331 4.60293 6.71673 4.44983 8.06993V8.09462C4.27204 9.5466 5.15607 10.0454 6.78584 10.4504C8.21313 10.7862 8.4897 11.0924 8.42055 11.6554C8.34647 12.2382 7.75383 12.6432 6.89943 12.6432C6.45611 12.644 6.01736 12.5536 5.61041 12.3778C5.20347 12.2019 4.83701 11.9443 4.53379 11.6209L3.57568 12.6086C3.98278 13.022 4.46894 13.3492 5.00519 13.5706C5.54144 13.7921 6.1168 13.9033 6.69695 13.8976V13.8927ZM12.9987 13.8927C13.4222 13.886 13.8383 13.7813 14.2145 13.5868C14.5906 13.3923 14.9166 13.1132 15.1668 12.7716L15.0434 13.7593H16.4114L17.1423 7.83287H15.7743L15.6607 8.75641C15.4693 8.42631 15.1916 8.1545 14.8576 7.97006C14.5235 7.78563 14.1456 7.69553 13.7642 7.7094C12.3419 7.7094 10.8652 8.82555 10.6183 10.7961V10.8208C10.3713 12.7913 11.6011 13.9124 12.9987 13.9124V13.8927ZM13.4926 12.7074C12.5691 12.7074 11.8727 11.9518 12.011 10.801V10.7763C12.0435 10.2791 12.2586 9.81133 12.6151 9.46307C12.9715 9.11482 13.4441 8.91063 13.942 8.88976C14.8557 8.88976 15.5767 9.64538 15.4236 10.7912V10.8159C15.382 11.3155 15.162 11.7835 14.8038 12.1344C14.4457 12.4853 13.9733 12.6957 13.4729 12.7271L13.4926 12.7074ZM17.7498 13.7643H19.1129L19.5277 10.4059C19.5405 10.0102 19.706 9.63483 19.9897 9.35857C20.2733 9.08231 20.6529 8.92668 21.0488 8.92433C21.8588 8.92433 22.2588 9.45277 22.1452 10.3812L21.7304 13.784H23.0935L23.5577 9.98615C23.7256 8.61319 23.0638 7.7094 21.7205 7.7094C21.3334 7.71742 20.9534 7.81527 20.6106 7.99526C20.2677 8.17524 19.9714 8.43243 19.745 8.74653L19.8586 7.83287H18.4609L17.7498 13.7643ZM24.422 13.7643H25.79L26.5209 7.83781H25.1331L24.422 13.7643ZM25.1875 6.91427H26.6691L26.8321 5.62033H25.3504L25.1875 6.91427ZM29.1384 13.8828C29.5793 13.8918 30.0149 13.7863 30.4027 13.5766L30.541 12.4604C30.2705 12.5934 29.9732 12.6626 29.6718 12.6629C29.2076 12.6629 28.9656 12.4506 29.0298 11.9221L29.3903 8.99841H30.9904L31.1139 7.83287H29.5335L29.7311 6.19816H28.368L28.1507 7.83287H27.4148L27.2667 9.00335H28.0223L27.6568 12.1394C27.479 13.4482 28.1507 13.8877 29.1384 13.8877V13.8828ZM33.6672 13.9075C34.0906 13.9004 34.5066 13.7956 34.8827 13.6011C35.2588 13.4066 35.5848 13.1278 35.8353 12.7864L35.7119 13.7741H37.0749L37.8059 7.84769H36.4428L36.3292 8.77123C36.1365 8.4411 35.858 8.16939 35.5231 7.98502C35.1883 7.80065 34.8098 7.71052 34.4278 7.72422C33.0104 7.72422 31.5288 8.84037 31.2868 10.8109V10.8356C31.0448 12.7913 32.2696 13.9124 33.6672 13.9124V13.9075ZM34.1611 12.7222C33.2376 12.7222 32.5412 11.9666 32.6795 10.8159V10.7912C32.7084 10.2912 32.922 9.8199 33.2788 9.46857C33.6356 9.11723 34.1102 8.91096 34.6105 8.88976C35.5242 8.88976 36.2452 9.64538 36.0921 10.7912V10.8159C36.0525 11.3162 35.8331 11.7854 35.4745 12.1367C35.116 12.488 34.6424 12.6977 34.1413 12.7271L34.1611 12.7222ZM40.4431 13.8927C41.6827 13.8927 42.7298 13.2753 42.8829 12.0209C43.0162 10.9492 42.0828 10.5393 41.2481 10.2825C40.5765 10.0602 39.9591 9.8775 40.0135 9.43795C40.0579 9.10212 40.3888 8.85518 40.9222 8.85518C41.4908 8.88182 42.041 9.06467 42.5125 9.38363L43.1742 8.39589C42.5548 7.96513 41.8199 7.73106 41.0654 7.72422C39.8851 7.72422 38.8627 8.4107 38.7245 9.53673V9.56142C38.5812 10.6973 39.5196 11.043 40.3691 11.3048C41.0407 11.5221 41.6531 11.6801 41.5939 12.1394C41.5445 12.5345 41.1741 12.7815 40.6061 12.7815C39.9201 12.7582 39.2629 12.5001 38.7442 12.0505L38.0281 13.0086C38.6967 13.5782 39.5451 13.893 40.4234 13.8976L40.4431 13.8927Z" fill="white"/>
</svg>
